<svg id="Calque_1" data-name="Calque 1" xmlns="http://www.w3.org/2000/svg" viewBox="0 0 1940 900.017">
  <polyline points="631.521 486.956 621.417 70.86 650.449 65.188" style="fill: none;stroke: #181716;stroke-width: 2.4000000953674316px"/>
  <polyline points="631.521 485.822 628.121 121.574 657.145 115.902" style="fill: none;stroke: #181716;stroke-width: 2.4000000953674316px"/>
  <polyline points="628.686 486.388 497.502 154.876 468.11 151.9" style="fill: none;stroke: #181716;stroke-width: 2.4000000953674316px"/>
  <line x1="630.954" y1="486.39" x2="594.842" y2="62.67" style="fill: none;stroke: #181716;stroke-width: 2.4000000953674316px"/>
  <polyline points="630.954 486.39 548.146 98.302 519.69 98.302" style="fill: none;stroke: #181716;stroke-width: 2.4000000953674316px"/>
  <g>
    <path d="M631.549,486.387l-5.936-340.1c1.312-.024,4.624-.048,5.936-.048Z" style="fill: #413c5c"/>
    <path d="M631.549,486.387,619.677,146.443c2.064-.072,3.872-.12,5.936-.16Z" style="fill: #cdbede"/>
    <path d="M631.549,486.387,584.213,149.539a319.124,319.124,0,0,1,35.464-3.1Z" style="fill: #775d85"/>
    <path d="M631.549,486.387,537.8,159.411a330.588,330.588,0,0,1,46.416-9.872Z" style="fill: #cddbe5"/>
    <path d="M631.549,486.387,477.133,183.307a342.665,342.665,0,0,1,60.664-23.9Z" style="fill: #a6b925"/>
    <path d="M631.549,486.387,320.829,348.035c32.928-73.968,84.168-127.968,156.3-164.728Z" style="fill: #f09100"/>
    <path d="M631.549,486.387l11.872,339.952C455.685,832.891,298.181,686,291.629,498.259c-1.936-55.384,6.656-99.6,29.2-150.224Z" style="fill: #7dcae7"/>
    <path d="M631.549,486.387V146.235c187.848,0,340.128,152.288,340.128,340.152A339.248,339.248,0,0,1,643.421,826.339Z" style="fill: #00a6dd"/>
  </g>
  <g>
    <path d="M6.9,7.876H31.881V12.1H11.444V22.548h18.89v3.985H11.444V38.205H32.233v4.1H6.9Z" style="fill: #181716"/>
    <path d="M37.425,17.2h4.008v3.562A11.238,11.238,0,0,1,45.206,17.6a10.058,10.058,0,0,1,4.43-.961q5.343,0,7.218,3.727a13.221,13.221,0,0,1,1.032,5.836v16.1H53.6V26.486a8.567,8.567,0,0,0-.68-3.7,4.12,4.12,0,0,0-4.078-2.344,8.309,8.309,0,0,0-2.461.3,6.335,6.335,0,0,0-3.047,2.062,6.211,6.211,0,0,0-1.371,2.567,17.267,17.267,0,0,0-.316,3.785V42.306H37.425Z" style="fill: #181716"/>
    <path d="M87.5,12.154a7.894,7.894,0,0,1,2.391,5.777,8.162,8.162,0,0,1-8.18,8.156,7.855,7.855,0,0,1-5.765-2.39,7.858,7.858,0,0,1-2.391-5.766,7.894,7.894,0,0,1,2.391-5.777,8.146,8.146,0,0,1,11.554,0Zm-2.355,9.187a4.809,4.809,0,0,0,0-6.82,4.834,4.834,0,0,0-8.262,3.41,4.839,4.839,0,0,0,8.262,3.41ZM101.331,8.884h2.615L85.173,43.2H82.557ZM110.5,28.365a8.168,8.168,0,0,1,0,11.547,8.169,8.169,0,0,1-13.946-5.774A8.168,8.168,0,0,1,110.5,28.365Zm-2.356,9.192a4.831,4.831,0,1,0-3.41,1.421A4.668,4.668,0,0,0,108.139,37.557Z" style="fill: #181716"/>
  </g>
  <rect x="1102.068" y="221.49" width="34.016" height="34.016" style="fill: #00a6dd"/>
  <g>
    <path d="M1150.328,226.954h3.8v12.278h15.037V226.954h3.8v28.555h-3.8V242.432h-15.037v13.077h-3.8Z" style="fill: #181716"/>
    <path d="M1186.767,258.269c-1.56,4.039-2.96,5.519-6,5.519a6.77,6.77,0,0,1-2.36-.36v-3.119a6.991,6.991,0,0,0,2,.48,2.937,2.937,0,0,0,2.8-1.88l1.4-3.52-8.2-20.556h3.839l6.039,16.917h.08l5.8-16.917h3.6Z" style="fill: #181716"/>
    <path d="M1217.125,255.509h-3.4v-2.8h-.08c-1.121,2.279-3.76,3.279-6.6,3.279-6.358,0-9.518-5.039-9.518-10.878s3.119-10.758,9.439-10.758c2.119,0,5.158.8,6.679,3.239h.08V226.954h3.4Zm-9.6-2.519c4.56,0,6.319-3.92,6.319-7.8,0-4.079-1.839-7.838-6.519-7.838-4.638,0-6.2,3.959-6.2,8C1201.127,249.23,1203.127,252.99,1207.526,252.99Z" style="fill: #181716"/>
    <path d="M1222.247,234.833h3.2v4.359h.08c1.64-3.319,3.919-4.959,7.6-4.839v3.6c-5.479,0-7.479,3.12-7.479,8.359v9.2h-3.4Z" style="fill: #181716"/>
    <path d="M1254,255.429a4.588,4.588,0,0,1-2.44.56c-1.759,0-2.879-.96-2.879-3.2a9.178,9.178,0,0,1-7.279,3.2c-3.76,0-6.839-1.679-6.839-5.8,0-4.679,3.479-5.679,7-6.359,3.76-.72,6.959-.48,6.959-3.039,0-2.96-2.439-3.439-4.6-3.439-2.88,0-5,.879-5.159,3.918h-3.4c.2-5.119,4.159-6.918,8.758-6.918,3.72,0,7.759.84,7.759,5.679V250.67c0,1.6,0,2.32,1.08,2.32a2.923,2.923,0,0,0,1.04-.2Zm-5.52-10.6c-1.319.96-3.879,1-6.159,1.4-2.239.4-4.159,1.2-4.159,3.719,0,2.24,1.92,3.04,4,3.04,4.479,0,6.318-2.8,6.318-4.679Z" style="fill: #181716"/>
    <path d="M1274.283,255.509h-3.2V252.23H1271a7.2,7.2,0,0,1-6.719,3.759c-5.439,0-7.119-3.119-7.119-7.558v-13.6h3.4v14a3.9,3.9,0,0,0,4.2,4.159c4.12,0,6.119-2.76,6.119-6.479V234.833h3.4Z" style="fill: #181716"/>
    <path d="M1279.606,226.954h3.4v28.555h-3.4Z" style="fill: #181716"/>
    <path d="M1291.886,231.113h-3.4v-4.159h3.4Zm-3.4,3.72h3.4v20.676h-3.4Z" style="fill: #181716"/>
    <path d="M1315.642,263.428h-3.4V252.71h-.08c-1.12,2.279-3.759,3.279-6.6,3.279-6.359,0-9.518-5.039-9.518-10.878s3.119-10.758,9.438-10.758c2.121,0,5.16.8,6.679,3.239h.08v-2.759h3.4Zm-9.6-10.438c4.56,0,6.319-3.92,6.319-7.8,0-4.079-1.84-7.838-6.518-7.838-4.64,0-6.2,3.959-6.2,8C1299.645,249.23,1301.645,252.99,1306.043,252.99Z" style="fill: #181716"/>
    <path d="M1338,255.509h-3.2V252.23h-.079a7.2,7.2,0,0,1-6.72,3.759c-5.439,0-7.118-3.119-7.118-7.558v-13.6h3.4v14a3.9,3.9,0,0,0,4.2,4.159c4.12,0,6.12-2.76,6.12-6.479V234.833h3.4Z" style="fill: #181716"/>
    <path d="M1360.762,248.95c-.92,4.56-4.2,7.039-8.839,7.039-6.6,0-9.718-4.559-9.918-10.878,0-6.2,4.079-10.758,9.719-10.758,7.318,0,9.557,6.839,9.358,11.838H1345.6c-.12,3.6,1.92,6.8,6.439,6.8,2.8,0,4.76-1.36,5.359-4.04Zm-3.28-5.759a5.949,5.949,0,0,0-5.959-5.838c-3.559,0-5.678,2.679-5.919,5.838Z" style="fill: #181716"/>
    <path d="M1375.6,234.833h3.2v4.359h.08c1.639-3.319,3.919-4.959,7.6-4.839v3.6c-5.479,0-7.479,3.12-7.479,8.359v9.2h-3.4Z" style="fill: #181716"/>
    <path d="M1405.961,248.95c-.92,4.56-4.2,7.039-8.839,7.039-6.6,0-9.719-4.559-9.918-10.878,0-6.2,4.079-10.758,9.718-10.758,7.319,0,9.558,6.839,9.358,11.838H1390.8c-.12,3.6,1.92,6.8,6.439,6.8,2.8,0,4.759-1.36,5.36-4.04Zm-3.279-5.759a5.95,5.95,0,0,0-5.959-5.838c-3.56,0-5.68,2.679-5.92,5.838Z" style="fill: #181716"/>
    <path d="M1409.8,234.833h3.2v3.279h.08a7.2,7.2,0,0,1,6.719-3.759c5.439,0,7.119,3.119,7.119,7.559v13.6h-3.4v-14a3.9,3.9,0,0,0-4.2-4.159c-4.119,0-6.119,2.759-6.119,6.478v11.678h-3.4Z" style="fill: #181716"/>
    <path d="M1440.962,234.353c6.559,0,10.038,4.759,10.038,10.838,0,6.039-3.479,10.8-10.038,10.8s-10.039-4.759-10.039-10.8C1430.923,239.112,1434.4,234.353,1440.962,234.353Zm0,18.637c3.559,0,6.438-2.8,6.438-7.8,0-5.039-2.879-7.838-6.438-7.838s-6.44,2.8-6.44,7.838C1434.522,250.19,1437.4,252.99,1440.962,252.99Z" style="fill: #181716"/>
    <path d="M1472.12,255.509h-3.2V252.23h-.08a7.2,7.2,0,0,1-6.719,3.759c-5.439,0-7.119-3.119-7.119-7.558v-13.6h3.4v14a3.9,3.9,0,0,0,4.2,4.159c4.119,0,6.119-2.76,6.119-6.479V234.833h3.4Z" style="fill: #181716"/>
    <path d="M1486.562,255.509h-3.64l-7.679-20.676h3.8l5.8,17.237h.08l5.639-17.237h3.559Z" style="fill: #181716"/>
    <path d="M1514.88,248.95c-.92,4.56-4.2,7.039-8.838,7.039-6.6,0-9.719-4.559-9.919-10.878,0-6.2,4.08-10.758,9.719-10.758,7.318,0,9.558,6.839,9.358,11.838h-15.477c-.12,3.6,1.92,6.8,6.439,6.8,2.8,0,4.759-1.36,5.359-4.04Zm-3.279-5.759a5.95,5.95,0,0,0-5.959-5.838c-3.56,0-5.679,2.679-5.919,5.838Z" style="fill: #181716"/>
    <path d="M1518.923,226.954h3.4v28.555h-3.4Z" style="fill: #181716"/>
    <path d="M1545.919,255.429a4.588,4.588,0,0,1-2.44.56c-1.76,0-2.879-.96-2.879-3.2a9.179,9.179,0,0,1-7.28,3.2c-3.758,0-6.839-1.679-6.839-5.8,0-4.679,3.48-5.679,7-6.359,3.76-.72,6.959-.48,6.959-3.039,0-2.96-2.439-3.439-4.6-3.439-2.879,0-5,.879-5.159,3.918h-3.4c.2-5.119,4.159-6.918,8.759-6.918,3.72,0,7.759.84,7.759,5.679V250.67c0,1.6,0,2.32,1.08,2.32a2.923,2.923,0,0,0,1.04-.2Zm-5.52-10.6c-1.319.96-3.878,1-6.159,1.4-2.239.4-4.159,1.2-4.159,3.719,0,2.24,1.92,3.04,4,3.04,4.48,0,6.319-2.8,6.319-4.679Z" style="fill: #181716"/>
    <path d="M1549.2,226.954h3.4v10.678h.08c1.119-2.279,3.758-3.279,6.6-3.279,6.36,0,9.519,5.039,9.519,10.878s-3.119,10.758-9.439,10.758c-2.12,0-5.159-.8-6.678-3.239h-.08v2.759h-3.4Zm9.6,10.4c-4.56,0-6.32,3.918-6.32,7.8,0,4.079,1.84,7.839,6.519,7.839,4.64,0,6.2-3.96,6.2-8C1565.2,241.112,1563.2,237.353,1558.8,237.353Z" style="fill: #181716"/>
    <path d="M1573,226.954h3.4v28.555H1573Z" style="fill: #181716"/>
    <path d="M1599.317,248.95c-.92,4.56-4.2,7.039-8.838,7.039-6.6,0-9.718-4.559-9.918-10.878,0-6.2,4.08-10.758,9.718-10.758,7.319,0,9.559,6.839,9.359,11.838H1584.16c-.12,3.6,1.92,6.8,6.44,6.8,2.8,0,4.758-1.36,5.358-4.04Zm-3.279-5.759a5.949,5.949,0,0,0-5.959-5.838c-3.559,0-5.679,2.679-5.919,5.838Z" style="fill: #181716"/>
  </g>
  <rect x="1102.068" y="292.17" width="34.016" height="34.016" style="fill: #7dcae7"/>
  <g>
    <path d="M1150.328,297.634h19.717v3.2h-15.917v9.079h14.837v3.2h-14.837v9.879h16.037v3.2h-19.837Zm10.118-7.759h4.36l-5.24,5.719h-2.559Z" style="fill: #181716"/>
    <path d="M1183.126,305.033c6.56,0,10.039,4.759,10.039,10.838,0,6.039-3.479,10.8-10.039,10.8s-10.038-4.759-10.038-10.8C1173.088,309.792,1176.567,305.033,1183.126,305.033Zm0,18.636c3.56,0,6.439-2.8,6.439-7.8,0-5.039-2.879-7.839-6.439-7.839s-6.438,2.8-6.438,7.839C1176.688,320.87,1179.566,323.669,1183.126,323.669Z" style="fill: #181716"/>
    <path d="M1197.368,297.634h3.4v28.555h-3.4Z" style="fill: #181716"/>
    <path d="M1209.646,301.793h-3.4v-4.159h3.4Zm-3.4,3.719h3.4v20.677h-3.4Z" style="fill: #181716"/>
    <path d="M1232.563,319.63c-.919,4.559-4.2,7.039-8.838,7.039-6.6,0-9.718-4.559-9.918-10.878,0-6.2,4.079-10.758,9.718-10.758,7.319,0,9.558,6.839,9.359,11.838h-15.478c-.12,3.6,1.92,6.8,6.439,6.8,2.8,0,4.759-1.359,5.359-4.039Zm-3.279-5.759a5.949,5.949,0,0,0-5.959-5.839c-3.559,0-5.679,2.679-5.919,5.839Z" style="fill: #181716"/>
    <path d="M1236.406,305.512h3.2v3.28h.081a7.2,7.2,0,0,1,6.718-3.759c5.44,0,7.119,3.119,7.119,7.558v13.6h-3.4v-14a3.9,3.9,0,0,0-4.2-4.159c-4.12,0-6.119,2.76-6.119,6.479v11.678h-3.4Z" style="fill: #181716"/>
  </g>
  <rect x="1102.068" y="362.85" width="34.016" height="34.016" style="fill: #f09100"/>
  <g>
    <path d="M1166.846,376.664c-.441-4.079-3.16-5.839-7.079-5.839-3.2,0-6.4,1.16-6.4,4.88,0,3.519,4.559,4.039,9.158,5.079,4.559,1.039,9.119,2.639,9.119,8.238,0,6.079-5.959,8.519-11.159,8.519-6.4,0-11.8-3.12-11.8-10.079h3.6c0,4.8,4,6.879,8.318,6.879,3.44,0,7.24-1.08,7.24-5.2,0-3.919-4.56-4.6-9.119-5.6s-9.159-2.319-9.159-7.559c0-5.8,5.16-8.358,10.359-8.358,5.839,0,10.278,2.759,10.518,9.038Z" style="fill: #181716"/>
    <path d="M1184.606,375.705c6.56,0,10.04,4.758,10.04,10.837,0,6.04-3.48,10.8-10.04,10.8s-10.038-4.759-10.038-10.8C1174.568,380.463,1178.048,375.705,1184.606,375.705Zm0,18.636c3.56,0,6.44-2.8,6.44-7.8,0-5.039-2.88-7.838-6.44-7.838s-6.438,2.8-6.438,7.838C1178.168,391.542,1181.047,394.341,1184.606,394.341Z" style="fill: #181716"/>
    <path d="M1198.848,368.306h3.4v28.555h-3.4Z" style="fill: #181716"/>
    <path d="M1225.844,396.781a4.586,4.586,0,0,1-2.44.56c-1.759,0-2.879-.96-2.879-3.2a9.173,9.173,0,0,1-7.279,3.2c-3.76,0-6.839-1.68-6.839-5.8,0-4.68,3.48-5.679,7-6.359,3.759-.72,6.959-.48,6.959-3.04,0-2.959-2.439-3.439-4.6-3.439-2.88,0-5,.879-5.16,3.919h-3.4c.2-5.119,4.159-6.918,8.759-6.918,3.72,0,7.759.839,7.759,5.678v10.638c0,1.6,0,2.32,1.08,2.32a2.918,2.918,0,0,0,1.039-.2Zm-5.519-10.6c-1.32.96-3.88,1-6.159,1.4-2.239.4-4.159,1.2-4.159,3.719,0,2.24,1.92,3.039,4,3.039,4.479,0,6.319-2.8,6.319-4.679Z" style="fill: #181716"/>
    <path d="M1232.606,372.465h-3.4v-4.159h3.4Zm-3.4,3.719h3.4v20.677h-3.4Z" style="fill: #181716"/>
    <path d="M1237.766,376.184h3.2v4.359h.08c1.64-3.319,3.919-4.959,7.6-4.838v3.6c-5.48,0-7.48,3.119-7.48,8.359v9.2h-3.4Z" style="fill: #181716"/>
    <path d="M1268.123,390.3c-.92,4.559-4.2,7.039-8.839,7.039-6.6,0-9.719-4.559-9.918-10.879,0-6.2,4.079-10.757,9.718-10.757,7.319,0,9.559,6.838,9.358,11.837h-15.477c-.12,3.6,1.92,6.8,6.439,6.8,2.8,0,4.759-1.36,5.36-4.039Zm-3.28-5.759a5.949,5.949,0,0,0-5.959-5.839c-3.559,0-5.679,2.679-5.919,5.839Z" style="fill: #181716"/>
    <path d="M1283.205,376.184h3.4v2.8h.081c1.12-2.28,3.759-3.279,6.6-3.279,6.36,0,9.519,5.039,9.519,10.878s-3.119,10.758-9.439,10.758c-2.119,0-5.159-.8-6.678-3.24h-.081v10.678h-3.4Zm9.6,2.52c-4.56,0-6.32,3.919-6.32,7.8,0,4.08,1.84,7.839,6.52,7.839,4.639,0,6.2-3.959,6.2-8C1299.2,382.463,1297.2,378.7,1292.8,378.7Z" style="fill: #181716"/>
    <path d="M1306.805,368.306h3.4v10.918h.08c1.119-2.48,4.039-3.519,6.519-3.519,5.439,0,7.119,3.119,7.119,7.558v13.6h-3.4v-14a3.9,3.9,0,0,0-4.2-4.159c-4.12,0-6.119,2.759-6.119,6.479v11.678h-3.4Z" style="fill: #181716"/>
    <path d="M1337.963,375.705c6.559,0,10.039,4.758,10.039,10.837,0,6.04-3.48,10.8-10.039,10.8s-10.038-4.759-10.038-10.8C1327.925,380.463,1331.4,375.705,1337.963,375.705Zm0,18.636c3.559,0,6.439-2.8,6.439-7.8,0-5.039-2.88-7.838-6.439-7.838s-6.439,2.8-6.439,7.838C1331.524,391.542,1334.4,394.341,1337.963,394.341Z" style="fill: #181716"/>
    <path d="M1356.724,376.184h4.119v3h-4.119v12.837c0,1.561.439,1.84,2.559,1.84h1.56v3h-2.6c-3.519,0-4.919-.72-4.919-4.519V379.184h-3.519v-3h3.519v-6.2h3.4Z" style="fill: #181716"/>
    <path d="M1373.522,375.705c6.559,0,10.039,4.758,10.039,10.837,0,6.04-3.48,10.8-10.039,10.8s-10.038-4.759-10.038-10.8C1363.484,380.463,1366.963,375.705,1373.522,375.705Zm0,18.636c3.56,0,6.439-2.8,6.439-7.8,0-5.039-2.879-7.838-6.439-7.838s-6.439,2.8-6.439,7.838C1367.083,391.542,1369.963,394.341,1373.522,394.341Z" style="fill: #181716"/>
    <path d="M1396.882,396.861h-3.64l-7.679-20.677h3.8l5.8,17.237h.08l5.639-17.237h3.559Z" style="fill: #181716"/>
    <path d="M1416.482,375.705c6.559,0,10.039,4.758,10.039,10.837,0,6.04-3.48,10.8-10.039,10.8s-10.039-4.759-10.039-10.8C1406.443,380.463,1409.923,375.705,1416.482,375.705Zm0,18.636c3.559,0,6.439-2.8,6.439-7.8,0-5.039-2.88-7.838-6.439-7.838s-6.439,2.8-6.439,7.838C1410.043,391.542,1412.923,394.341,1416.482,394.341Z" style="fill: #181716"/>
    <path d="M1430.724,368.306h3.4v28.555h-3.4Z" style="fill: #181716"/>
    <path d="M1444.121,376.184h4.12v3h-4.12v12.837c0,1.561.441,1.84,2.56,1.84h1.56v3h-2.6c-3.52,0-4.92-.72-4.92-4.519V379.184H1437.2v-3h3.519v-6.2h3.4Z" style="fill: #181716"/>
    <path d="M1470.319,396.781a4.586,4.586,0,0,1-2.44.56c-1.76,0-2.879-.96-2.879-3.2a9.174,9.174,0,0,1-7.279,3.2c-3.759,0-6.839-1.68-6.839-5.8,0-4.68,3.479-5.679,7-6.359,3.76-.72,6.959-.48,6.959-3.04,0-2.959-2.44-3.439-4.6-3.439-2.879,0-5,.879-5.159,3.919h-3.4c.2-5.119,4.159-6.918,8.758-6.918,3.72,0,7.759.839,7.759,5.678v10.638c0,1.6,0,2.32,1.08,2.32a2.919,2.919,0,0,0,1.04-.2Zm-5.519-10.6c-1.32.96-3.879,1-6.159,1.4-2.24.4-4.16,1.2-4.16,3.719,0,2.24,1.92,3.039,4,3.039,4.48,0,6.32-2.8,6.32-4.679Z" style="fill: #181716"/>
    <path d="M1469.8,369.025h3.6v4.16h-3.6Zm3.88,27.836V376.184h3.4v20.677Zm3.639-27.836h3.6v4.16h-3.6Z" style="fill: #181716"/>
    <path d="M1500.837,404.779h-3.4V394.062h-.081c-1.119,2.279-3.758,3.279-6.6,3.279-6.359,0-9.519-5.039-9.519-10.879s3.12-10.757,9.439-10.757c2.12,0,5.159.8,6.678,3.239h.081v-2.76h3.4Zm-9.6-10.438c4.559,0,6.319-3.919,6.319-7.8,0-4.079-1.84-7.838-6.519-7.838-4.64,0-6.2,3.959-6.2,8C1484.84,390.582,1486.84,394.341,1491.239,394.341Z" style="fill: #181716"/>
    <path d="M1523.2,396.861H1520v-3.279h-.08a7.2,7.2,0,0,1-6.719,3.759c-5.439,0-7.119-3.12-7.119-7.559v-13.6h3.4v14a3.9,3.9,0,0,0,4.2,4.159c4.119,0,6.119-2.759,6.119-6.479V376.184h3.4Z" style="fill: #181716"/>
    <path d="M1545.957,390.3c-.92,4.559-4.2,7.039-8.838,7.039-6.6,0-9.719-4.559-9.919-10.879,0-6.2,4.08-10.757,9.719-10.757,7.318,0,9.559,6.838,9.358,11.837H1530.8c-.12,3.6,1.92,6.8,6.439,6.8,2.8,0,4.759-1.36,5.359-4.039Zm-3.279-5.759a5.949,5.949,0,0,0-5.959-5.839c-3.56,0-5.679,2.679-5.919,5.839Z" style="fill: #181716"/>
  </g>
  <rect x="1102.068" y="433.522" width="34.016" height="34.016" style="fill: #a6b925"/>
  <g>
    <path d="M1150.328,438.985h10.359c2.519,0,5.838,0,7.558,1.04a6.777,6.777,0,0,1,3.359,5.959,6.6,6.6,0,0,1-4.239,6.4v.08a6.543,6.543,0,0,1,5.44,6.879c0,4.2-3,8.2-8.679,8.2h-13.8Zm3.8,12.278h7.6c4.319,0,6.079-1.559,6.079-4.559,0-3.959-2.8-4.519-6.079-4.519h-7.6Zm0,13.078h9.518c3.28,0,5.359-2,5.359-5.119,0-3.72-3-4.759-6.2-4.759h-8.678Z" style="fill: #181716"/>
    <path d="M1180.768,443.145h-3.4v-4.16h3.4Zm-3.4,3.719h3.4v20.677h-3.4Z" style="fill: #181716"/>
    <path d="M1194.966,446.384c6.559,0,10.039,4.759,10.039,10.838,0,6.039-3.48,10.8-10.039,10.8s-10.038-4.76-10.038-10.8C1184.928,451.143,1188.407,446.384,1194.966,446.384Zm0,18.637c3.559,0,6.439-2.8,6.439-7.8,0-5.039-2.88-7.838-6.439-7.838s-6.439,2.8-6.439,7.838C1188.527,462.221,1191.406,465.021,1194.966,465.021Z" style="fill: #181716"/>
    <path d="M1209.007,446.864h3.2V449.9h.079a7.626,7.626,0,0,1,6.68-3.519c2.519,0,4.839,1,5.679,3.519a7.649,7.649,0,0,1,6.478-3.519c4.12,0,6.879,1.72,6.879,6v15.158h-3.4V453.983c0-2.56-.68-4.6-4-4.6a5.008,5.008,0,0,0-5.4,5.279v12.878h-3.4V453.983c0-2.68-.84-4.6-3.879-4.6a5.578,5.578,0,0,0-5.52,5.279v12.878h-3.4Z" style="fill: #181716"/>
    <path d="M1261.443,467.46a4.579,4.579,0,0,1-2.439.561c-1.76,0-2.879-.96-2.879-3.2a9.174,9.174,0,0,1-7.279,3.2c-3.76,0-6.839-1.68-6.839-5.8,0-4.679,3.479-5.679,7-6.359,3.759-.719,6.959-.48,6.959-3.039,0-2.96-2.44-3.439-4.6-3.439-2.88,0-5,.879-5.159,3.919h-3.4c.2-5.119,4.159-6.919,8.758-6.919,3.72,0,7.759.84,7.759,5.679V462.7c0,1.6,0,2.32,1.08,2.32a2.91,2.91,0,0,0,1.039-.2Zm-5.518-10.6c-1.321.96-3.88,1-6.159,1.4-2.24.4-4.16,1.2-4.16,3.719,0,2.24,1.92,3.04,4,3.04,4.48,0,6.32-2.8,6.32-4.679Z" style="fill: #181716"/>
    <path d="M1266.686,461.021c.12,3.04,2.759,4,5.559,4,2.119,0,5-.48,5-3.08,0-2.639-3.359-3.079-6.759-3.839-3.359-.76-6.758-1.879-6.758-5.839,0-4.159,4.119-5.879,7.718-5.879,4.559,0,8.2,1.44,8.479,6.479h-3.4c-.24-2.639-2.559-3.479-4.8-3.479-2.039,0-4.4.559-4.4,2.639,0,2.44,3.6,2.84,6.759,3.6,3.4.759,6.759,1.879,6.759,5.878,0,4.92-4.6,6.52-8.8,6.52-4.64,0-8.559-1.88-8.759-7Z" style="fill: #181716"/>
    <path d="M1286.686,461.021c.12,3.04,2.759,4,5.559,4,2.119,0,5-.48,5-3.08,0-2.639-3.359-3.079-6.759-3.839-3.359-.76-6.758-1.879-6.758-5.839,0-4.159,4.119-5.879,7.718-5.879,4.559,0,8.2,1.44,8.479,6.479h-3.4c-.24-2.639-2.559-3.479-4.8-3.479-2.039,0-4.4.559-4.4,2.639,0,2.44,3.6,2.84,6.759,3.6,3.4.759,6.759,1.879,6.759,5.878,0,4.92-4.6,6.52-8.8,6.52-4.64,0-8.559-1.88-8.759-7Z" style="fill: #181716"/>
    <path d="M1322.243,460.981c-.92,4.56-4.2,7.04-8.839,7.04-6.6,0-9.717-4.56-9.918-10.879,0-6.2,4.079-10.758,9.719-10.758,7.318,0,9.558,6.839,9.358,11.838h-15.477c-.12,3.6,1.92,6.8,6.438,6.8,2.8,0,4.76-1.36,5.36-4.04Zm-3.279-5.758a5.949,5.949,0,0,0-5.959-5.839c-3.56,0-5.679,2.679-5.919,5.839Z" style="fill: #181716"/>
    <path d="M1339.285,461.021c.12,3.04,2.76,4,5.56,4,2.119,0,5-.48,5-3.08,0-2.639-3.36-3.079-6.759-3.839-3.359-.76-6.759-1.879-6.759-5.839,0-4.159,4.119-5.879,7.719-5.879,4.559,0,8.2,1.44,8.478,6.479h-3.4c-.24-2.639-2.56-3.479-4.8-3.479-2.039,0-4.4.559-4.4,2.639,0,2.44,3.6,2.84,6.759,3.6,3.4.759,6.758,1.879,6.758,5.878,0,4.92-4.6,6.52-8.8,6.52-4.64,0-8.559-1.88-8.759-7Z" style="fill: #181716"/>
    <path d="M1366.124,446.384c6.56,0,10.039,4.759,10.039,10.838,0,6.039-3.479,10.8-10.039,10.8s-10.038-4.76-10.038-10.8C1356.086,451.143,1359.565,446.384,1366.124,446.384Zm0,18.637c3.56,0,6.439-2.8,6.439-7.8,0-5.039-2.879-7.838-6.439-7.838s-6.438,2.8-6.438,7.838C1359.686,462.221,1362.564,465.021,1366.124,465.021Z" style="fill: #181716"/>
    <path d="M1380.366,438.985h3.4v28.556h-3.4Z" style="fill: #181716"/>
    <path d="M1392.645,443.145h-3.4v-4.16h3.4Zm-3.4,3.719h3.4v20.677h-3.4Z" style="fill: #181716"/>
    <path d="M1416.4,467.541H1413v-2.8h-.08c-1.119,2.28-3.759,3.28-6.6,3.28-6.358,0-9.518-5.04-9.518-10.879s3.12-10.758,9.438-10.758c2.12,0,5.159.8,6.679,3.24h.08V438.985h3.4Zm-9.6-2.52c4.558,0,6.318-3.919,6.318-7.8,0-4.079-1.84-7.838-6.518-7.838-4.64,0-6.2,3.959-6.2,8C1400.4,461.262,1402.4,465.021,1406.8,465.021Z" style="fill: #181716"/>
    <path d="M1439.281,460.981c-.92,4.56-4.2,7.04-8.838,7.04-6.6,0-9.718-4.56-9.919-10.879,0-6.2,4.08-10.758,9.719-10.758,7.319,0,9.559,6.839,9.359,11.838h-15.478c-.12,3.6,1.92,6.8,6.439,6.8,2.8,0,4.759-1.36,5.359-4.04ZM1436,455.223a5.949,5.949,0,0,0-5.959-5.839c-3.56,0-5.679,2.679-5.919,5.839Z" style="fill: #181716"/>
  </g>
  <rect x="1102.068" y="504.202" width="34.016" height="34.016" style="fill: #cddbe5"/>
  <g>
    <path d="M1150.328,509.665h10.359c2.519,0,5.838,0,7.558,1.04a6.776,6.776,0,0,1,3.359,5.959,6.6,6.6,0,0,1-4.239,6.4v.08a6.543,6.543,0,0,1,5.44,6.878c0,4.2-3,8.2-8.679,8.2h-13.8Zm3.8,12.278h7.6c4.319,0,6.079-1.56,6.079-4.559,0-3.96-2.8-4.52-6.079-4.52h-7.6Zm0,13.078h9.518c3.28,0,5.359-2,5.359-5.119,0-3.72-3-4.759-6.2-4.759h-8.678Z" style="fill: #181716"/>
    <path d="M1180.768,513.824h-3.4v-4.159h3.4Zm-3.4,3.719h3.4V538.22h-3.4Z" style="fill: #181716"/>
    <path d="M1194.966,517.064c6.559,0,10.039,4.759,10.039,10.838,0,6.039-3.48,10.8-10.039,10.8s-10.038-4.759-10.038-10.8C1184.928,521.823,1188.407,517.064,1194.966,517.064Zm0,18.637c3.559,0,6.439-2.8,6.439-7.8,0-5.039-2.88-7.839-6.439-7.839s-6.439,2.8-6.439,7.839C1188.527,532.9,1191.406,535.7,1194.966,535.7Z" style="fill: #181716"/>
    <path d="M1226.844,536.46c0,6.719-3.079,10.159-9.6,10.159-3.88,0-8.359-1.56-8.558-6.079h3.4c.159,2.48,3.119,3.359,5.358,3.359,4.44,0,6.2-3.2,6.2-7.838V534.7h-.081a6.888,6.888,0,0,1-6.438,3.759c-6.159,0-9.238-4.839-9.238-10.478,0-4.879,2.4-10.918,9.557-10.918a6.748,6.748,0,0,1,6.159,3.439h.041v-2.96h3.2Zm-3.36-9c0-3.639-1.6-7.4-5.879-7.4-4.359,0-6.119,3.56-6.119,7.519,0,3.719,1.361,7.878,5.84,7.878S1223.484,531.341,1223.484,527.462Z" style="fill: #181716"/>
    <path d="M1250.283,538.14a4.579,4.579,0,0,1-2.439.56c-1.76,0-2.879-.96-2.879-3.2a9.176,9.176,0,0,1-7.279,3.2c-3.76,0-6.839-1.679-6.839-5.8,0-4.679,3.479-5.679,7-6.359,3.758-.72,6.959-.48,6.959-3.04,0-2.959-2.44-3.439-4.6-3.439-2.88,0-5,.88-5.159,3.919h-3.4c.2-5.119,4.16-6.918,8.759-6.918,3.72,0,7.759.84,7.759,5.679v10.638c0,1.6,0,2.32,1.08,2.32a2.9,2.9,0,0,0,1.039-.2Zm-5.518-10.6c-1.321.96-3.88,1-6.16,1.4-2.239.4-4.159,1.2-4.159,3.719,0,2.24,1.92,3.04,4,3.04,4.48,0,6.32-2.8,6.32-4.68Z" style="fill: #181716"/>
    <path d="M1251.767,535.621l12.477-15.078h-11.678v-3h16.078v2.32l-12.638,15.358h13.2v3h-17.436Z" style="fill: #181716"/>
  </g>
  <rect x="1102.068" y="574.882" width="34.016" height="34.016" style="fill: #775d85"/>
  <g>
    <path d="M1150.328,580.337h9.8c8.8,0,13.718,4.4,13.718,13.6,0,9.558-4.2,14.957-13.718,14.957h-9.8Zm3.8,25.356h6.318c2.6,0,9.6-.72,9.6-11.238,0-6.8-2.52-10.919-9.519-10.919h-6.4Z" style="fill: #181716"/>
    <path d="M1195.565,602.333c-.919,4.56-4.2,7.039-8.838,7.039-6.6,0-9.719-4.559-9.918-10.878,0-6.2,4.079-10.758,9.717-10.758,7.32,0,9.559,6.839,9.359,11.838h-15.478c-.12,3.6,1.92,6.8,6.44,6.8,2.8,0,4.758-1.36,5.359-4.04Zm-3.28-5.759a5.948,5.948,0,0,0-5.959-5.839c-3.558,0-5.679,2.68-5.919,5.839Zm-5.159-16.917h4.359l-5.238,5.719h-2.559Z" style="fill: #181716"/>
    <path d="M1213.445,594.854a4.813,4.813,0,0,0-5.119-4.119c-4.919,0-6.439,3.879-6.439,8.079,0,3.8,1.719,7.559,6.039,7.559,3.279,0,5.239-1.92,5.679-5.04h3.48c-.761,5.04-3.92,8.039-9.119,8.039-6.319,0-9.678-4.4-9.678-10.558,0-6.2,3.2-11.078,9.758-11.078,4.68,0,8.438,2.2,8.919,7.118Z" style="fill: #181716"/>
    <path d="M1220.887,580.337h3.4v10.918h.08c1.12-2.48,4.039-3.519,6.52-3.519,5.438,0,7.118,3.119,7.118,7.558v13.6h-3.4v-14a3.9,3.9,0,0,0-4.2-4.16c-4.119,0-6.119,2.76-6.119,6.479v11.678h-3.4Z" style="fill: #181716"/>
    <path d="M1260.764,602.333c-.92,4.56-4.2,7.039-8.839,7.039-6.6,0-9.718-4.559-9.918-10.878,0-6.2,4.079-10.758,9.719-10.758,7.318,0,9.557,6.839,9.358,11.838h-15.478c-.12,3.6,1.92,6.8,6.439,6.8,2.8,0,4.76-1.36,5.359-4.04Zm-3.28-5.759a5.949,5.949,0,0,0-5.959-5.839c-3.559,0-5.678,2.68-5.919,5.839Z" style="fill: #181716"/>
    <path d="M1269.325,588.215h4.119v3h-4.119v12.838c0,1.56.441,1.84,2.56,1.84h1.559v3h-2.6c-3.519,0-4.919-.72-4.919-4.519V591.215h-3.52v-3h3.52v-6.2h3.4Z" style="fill: #181716"/>
    <path d="M1279.285,602.373c.12,3.04,2.76,4,5.56,4,2.119,0,5-.48,5-3.08,0-2.64-3.36-3.08-6.759-3.839-3.359-.76-6.759-1.88-6.759-5.839,0-4.159,4.119-5.879,7.719-5.879,4.559,0,8.2,1.439,8.478,6.478h-3.4c-.24-2.639-2.56-3.479-4.8-3.479-2.039,0-4.4.56-4.4,2.64,0,2.439,3.6,2.839,6.759,3.6,3.4.76,6.758,1.88,6.758,5.879,0,4.919-4.6,6.519-8.8,6.519-4.64,0-8.559-1.88-8.759-7Z" style="fill: #181716"/>
    <path d="M1308.206,588.215h3.2v4.36h.08c1.64-3.32,3.919-4.959,7.6-4.839v3.6c-5.479,0-7.479,3.12-7.479,8.359v9.2h-3.4Z" style="fill: #181716"/>
    <path d="M1338.562,602.333c-.919,4.56-4.2,7.039-8.838,7.039-6.6,0-9.718-4.559-9.918-10.878,0-6.2,4.079-10.758,9.718-10.758,7.319,0,9.558,6.839,9.359,11.838h-15.478c-.12,3.6,1.92,6.8,6.439,6.8,2.8,0,4.76-1.36,5.359-4.04Zm-3.279-5.759a5.949,5.949,0,0,0-5.959-5.839c-3.559,0-5.678,2.68-5.919,5.839Z" style="fill: #181716"/>
    <path d="M1342.405,588.215h3.2v3.28h.081a7.2,7.2,0,0,1,6.718-3.759c5.44,0,7.119,3.119,7.119,7.558v13.6h-3.4v-14a3.9,3.9,0,0,0-4.2-4.16c-4.12,0-6.119,2.76-6.119,6.479v11.678h-3.4Z" style="fill: #181716"/>
    <path d="M1373.563,587.736c6.56,0,10.04,4.759,10.04,10.838,0,6.039-3.48,10.8-10.04,10.8s-10.038-4.759-10.038-10.8C1363.525,592.5,1367.005,587.736,1373.563,587.736Zm0,18.637c3.56,0,6.44-2.8,6.44-7.8,0-5.039-2.88-7.839-6.44-7.839s-6.438,2.8-6.438,7.839C1367.125,603.573,1370,606.373,1373.563,606.373Z" style="fill: #181716"/>
    <path d="M1404.722,608.892h-3.2v-3.279h-.08a7.2,7.2,0,0,1-6.718,3.759c-5.44,0-7.12-3.12-7.12-7.559v-13.6h3.4v14a3.9,3.9,0,0,0,4.2,4.16c4.119,0,6.118-2.76,6.118-6.479V588.215h3.4Z" style="fill: #181716"/>
    <path d="M1419.163,608.892h-3.64l-7.678-20.677h3.8l5.8,17.238h.08l5.639-17.238h3.56Z" style="fill: #181716"/>
    <path d="M1447.481,602.333c-.919,4.56-4.2,7.039-8.837,7.039-6.6,0-9.719-4.559-9.919-10.878,0-6.2,4.08-10.758,9.718-10.758,7.319,0,9.559,6.839,9.359,11.838h-15.478c-.12,3.6,1.92,6.8,6.44,6.8,2.8,0,4.758-1.36,5.358-4.04Zm-3.279-5.759a5.949,5.949,0,0,0-5.959-5.839c-3.559,0-5.679,2.68-5.919,5.839Z" style="fill: #181716"/>
    <path d="M1451.524,580.337h3.4v28.555h-3.4Z" style="fill: #181716"/>
    <path d="M1478.521,608.812a4.586,4.586,0,0,1-2.44.56c-1.76,0-2.879-.96-2.879-3.2a9.174,9.174,0,0,1-7.279,3.2c-3.759,0-6.839-1.68-6.839-5.8,0-4.679,3.479-5.679,7-6.359,3.76-.72,6.959-.48,6.959-3.04,0-2.959-2.439-3.439-4.6-3.439-2.879,0-5,.88-5.159,3.919h-3.4c.2-5.119,4.16-6.918,8.759-6.918,3.719,0,7.758.84,7.758,5.679v10.638c0,1.6,0,2.32,1.08,2.32a2.9,2.9,0,0,0,1.04-.2Zm-5.519-10.6c-1.319.96-3.879,1-6.159,1.4-2.239.4-4.159,1.2-4.159,3.719,0,2.24,1.92,3.04,4,3.04,4.479,0,6.319-2.8,6.319-4.68Z" style="fill: #181716"/>
    <path d="M1481.8,580.337h3.4v10.678h.08c1.119-2.28,3.759-3.279,6.6-3.279,6.359,0,9.518,5.039,9.518,10.878s-3.119,10.758-9.438,10.758c-2.12,0-5.159-.8-6.679-3.24h-.08v2.76h-3.4Zm9.6,10.4c-4.559,0-6.319,3.919-6.319,7.8,0,4.079,1.84,7.839,6.519,7.839,4.639,0,6.2-3.96,6.2-8C1497.8,594.5,1495.8,590.735,1491.4,590.735Z" style="fill: #181716"/>
    <path d="M1505.6,580.337h3.4v28.555h-3.4Z" style="fill: #181716"/>
    <path d="M1531.919,602.333c-.92,4.56-4.2,7.039-8.838,7.039-6.6,0-9.719-4.559-9.919-10.878,0-6.2,4.08-10.758,9.719-10.758,7.318,0,9.558,6.839,9.358,11.838h-15.477c-.12,3.6,1.92,6.8,6.439,6.8,2.8,0,4.759-1.36,5.359-4.04Zm-3.279-5.759a5.95,5.95,0,0,0-5.959-5.839c-3.56,0-5.679,2.68-5.919,5.839Z" style="fill: #181716"/>
    <path d="M1537.842,602.373c.119,3.04,2.759,4,5.558,4,2.121,0,5-.48,5-3.08,0-2.64-3.359-3.08-6.758-3.839-3.36-.76-6.759-1.88-6.759-5.839,0-4.159,4.119-5.879,7.719-5.879,4.559,0,8.2,1.439,8.478,6.478h-3.4c-.241-2.639-2.56-3.479-4.8-3.479-2.04,0-4.4.56-4.4,2.64,0,2.439,3.6,2.839,6.759,3.6,3.4.76,6.759,1.88,6.759,5.879,0,4.919-4.6,6.519-8.8,6.519-4.638,0-8.558-1.88-8.758-7Z" style="fill: #181716"/>
  </g>
  <rect x="1102.068" y="715.234" width="34.016" height="34.016" style="fill: #413c5c"/>
  <g>
    <path d="M1150.328,720.7h19.717v3.2h-15.917v9.079h14.837v3.2h-14.837v9.879h16.037v3.2h-19.837Zm10.118-7.759h4.36l-5.24,5.719h-2.559Z" style="fill: #181716"/>
    <path d="M1174.208,728.575h3.2v3.28h.08a7.2,7.2,0,0,1,6.719-3.759c5.44,0,7.119,3.119,7.119,7.558v13.6h-3.4v-14a3.9,3.9,0,0,0-4.2-4.159c-4.121,0-6.12,2.759-6.12,6.479v11.678h-3.4Z" style="fill: #181716"/>
    <path d="M1214.085,742.693c-.92,4.559-4.2,7.039-8.839,7.039-6.6,0-9.718-4.559-9.918-10.878,0-6.2,4.079-10.758,9.719-10.758,7.318,0,9.557,6.839,9.358,11.838h-15.477c-.12,3.6,1.92,6.8,6.438,6.8,2.8,0,4.76-1.359,5.36-4.039Zm-3.279-5.759a5.949,5.949,0,0,0-5.959-5.839c-3.56,0-5.679,2.679-5.919,5.839Z" style="fill: #181716"/>
    <path d="M1217.808,728.575h3.2v4.36h.08c1.64-3.32,3.919-4.959,7.6-4.839v3.6c-5.479,0-7.479,3.119-7.479,8.359v9.2h-3.4Z" style="fill: #181716"/>
    <path d="M1248,747.492c0,6.719-3.079,10.158-9.6,10.158-3.88,0-8.359-1.559-8.558-6.078h3.4c.159,2.479,3.119,3.359,5.358,3.359,4.44,0,6.2-3.2,6.2-7.839v-1.36h-.08a6.889,6.889,0,0,1-6.439,3.76c-6.159,0-9.238-4.839-9.238-10.478,0-4.88,2.4-10.918,9.557-10.918a6.749,6.749,0,0,1,6.16,3.439h.04v-2.96h3.2Zm-3.359-9c0-3.64-1.6-7.4-5.879-7.4-4.36,0-6.12,3.559-6.12,7.519,0,3.719,1.361,7.878,5.84,7.878S1244.645,742.373,1244.645,738.494Z" style="fill: #181716"/>
    <path d="M1256.727,724.856h-3.4V720.7h3.4Zm-3.4,3.719h3.4v20.677h-3.4Z" style="fill: #181716"/>
    <path d="M1279.644,742.693c-.92,4.559-4.2,7.039-8.839,7.039-6.6,0-9.719-4.559-9.918-10.878,0-6.2,4.079-10.758,9.717-10.758,7.32,0,9.559,6.839,9.359,11.838h-15.478c-.12,3.6,1.92,6.8,6.44,6.8,2.8,0,4.759-1.359,5.359-4.039Zm-3.281-5.759a5.948,5.948,0,0,0-5.959-5.839c-3.558,0-5.678,2.679-5.919,5.839Z" style="fill: #181716"/>
    <path d="M1294.605,728.575h3.2v3.04h.079a7.622,7.622,0,0,1,6.679-3.519c2.52,0,4.839,1,5.679,3.519a7.649,7.649,0,0,1,6.479-3.519c4.12,0,6.879,1.719,6.879,6v15.157h-3.4V735.694c0-2.559-.68-4.6-4-4.6a5.008,5.008,0,0,0-5.4,5.279v12.878h-3.4V735.694c0-2.679-.84-4.6-3.879-4.6a5.577,5.577,0,0,0-5.519,5.279v12.878h-3.4Z" style="fill: #181716"/>
    <path d="M1347.042,749.172a4.582,4.582,0,0,1-2.439.56c-1.76,0-2.879-.96-2.879-3.2a9.176,9.176,0,0,1-7.28,3.2c-3.759,0-6.839-1.68-6.839-5.8,0-4.68,3.48-5.679,7-6.359,3.759-.72,6.959-.48,6.959-3.04,0-2.959-2.439-3.439-4.6-3.439-2.88,0-5,.88-5.159,3.919h-3.4c.2-5.119,4.159-6.918,8.759-6.918,3.72,0,7.759.84,7.759,5.678v10.639c0,1.6,0,2.319,1.08,2.319a2.914,2.914,0,0,0,1.039-.2Zm-5.519-10.6c-1.32.96-3.879,1-6.159,1.4-2.239.4-4.159,1.2-4.159,3.719,0,2.24,1.92,3.039,4,3.039,4.48,0,6.319-2.8,6.319-4.679Z" style="fill: #181716"/>
    <path d="M1350.085,728.575h3.2v4.36h.08c1.64-3.32,3.919-4.959,7.6-4.839v3.6c-5.479,0-7.479,3.119-7.479,8.359v9.2h-3.4Z" style="fill: #181716"/>
    <path d="M1380.441,742.693c-.92,4.559-4.2,7.039-8.838,7.039-6.6,0-9.718-4.559-9.918-10.878,0-6.2,4.079-10.758,9.718-10.758,7.319,0,9.558,6.839,9.359,11.838h-15.478c-.12,3.6,1.92,6.8,6.439,6.8,2.8,0,4.759-1.359,5.359-4.039Zm-3.279-5.759a5.949,5.949,0,0,0-5.959-5.839c-3.559,0-5.679,2.679-5.919,5.839ZM1372,720.017h4.359l-5.239,5.719h-2.56Z" style="fill: #181716"/>
    <path d="M1384.284,728.575h3.2v3.04h.08a7.621,7.621,0,0,1,6.679-3.519c2.52,0,4.84,1,5.68,3.519a7.648,7.648,0,0,1,6.478-3.519c4.12,0,6.879,1.719,6.879,6v15.157h-3.4V735.694c0-2.559-.68-4.6-4-4.6a5.009,5.009,0,0,0-5.4,5.279v12.878h-3.4V735.694c0-2.679-.84-4.6-3.879-4.6a5.576,5.576,0,0,0-5.519,5.279v12.878h-3.4Z" style="fill: #181716"/>
    <path d="M1427.323,728.1c6.559,0,10.038,4.758,10.038,10.838,0,6.039-3.479,10.8-10.038,10.8s-10.039-4.759-10.039-10.8C1417.284,732.854,1420.764,728.1,1427.323,728.1Zm0,18.636c3.559,0,6.439-2.8,6.439-7.8,0-5.039-2.88-7.839-6.439-7.839s-6.439,2.8-6.439,7.839C1420.884,743.933,1423.764,746.732,1427.323,746.732Z" style="fill: #181716"/>
    <path d="M1446.083,728.575h4.12v3h-4.12v12.838c0,1.56.44,1.839,2.56,1.839h1.56v3h-2.6c-3.52,0-4.92-.72-4.92-4.519V731.575h-3.519v-3h3.519v-6.2h3.4Z" style="fill: #181716"/>
    <path d="M1453.843,728.575h3.2v4.36h.08c1.64-3.32,3.92-4.959,7.6-4.839v3.6c-5.479,0-7.479,3.119-7.479,8.359v9.2h-3.4Z" style="fill: #181716"/>
    <path d="M1470.883,724.856h-3.4V720.7h3.4Zm-3.4,3.719h3.4v20.677h-3.4Z" style="fill: #181716"/>
    <path d="M1490.2,735.214a4.813,4.813,0,0,0-5.119-4.119c-4.92,0-6.439,3.879-6.439,8.079,0,3.8,1.719,7.558,6.039,7.558,3.279,0,5.239-1.92,5.678-5.039h3.48c-.76,5.039-3.919,8.039-9.118,8.039-6.32,0-9.679-4.4-9.679-10.558,0-6.2,3.2-11.078,9.759-11.078,4.678,0,8.438,2.2,8.918,7.118Z" style="fill: #181716"/>
    <path d="M1515.278,742.693c-.92,4.559-4.2,7.039-8.838,7.039-6.6,0-9.718-4.559-9.919-10.878,0-6.2,4.081-10.758,9.719-10.758,7.319,0,9.559,6.839,9.359,11.838h-15.478c-.12,3.6,1.92,6.8,6.44,6.8,2.8,0,4.758-1.359,5.358-4.039ZM1512,736.934a5.949,5.949,0,0,0-5.959-5.839c-3.56,0-5.679,2.679-5.919,5.839Z" style="fill: #181716"/>
  </g>
  <rect x="1102.068" y="644.174" width="34.016" height="34.016" style="fill: #cdbede"/>
  <g>
    <path d="M1171.685,674.632a11.178,11.178,0,0,1-9.159,4.24c-8.518,0-13.6-6.959-13.6-14.4,0-8.318,4.558-15.517,13.6-15.517,6.239,0,11.2,2.8,12.278,9.478h-3.8c-.76-4.319-4.239-6.279-8.479-6.279-6.919,0-9.8,6-9.8,12.118,0,5.959,3.439,11.4,9.8,11.4,5.879,0,9.4-4.119,9.159-9.318h-9.119v-3.2h12.518v15.038h-2.4Z" style="fill: #181716"/>
    <path d="M1197.765,671.633c-.92,4.559-4.2,7.038-8.839,7.038-6.6,0-9.718-4.558-9.918-10.878,0-6.2,4.079-10.757,9.719-10.757,7.318,0,9.557,6.839,9.358,11.838h-15.478c-.12,3.6,1.92,6.8,6.439,6.8,2.8,0,4.76-1.359,5.359-4.039Zm-3.28-5.759a5.949,5.949,0,0,0-5.959-5.839c-3.559,0-5.678,2.679-5.919,5.839Zm-5.159-16.917h4.36l-5.24,5.719h-2.559Z" style="fill: #181716"/>
    <path d="M1210.525,657.036c6.56,0,10.039,4.758,10.039,10.838,0,6.039-3.479,10.8-10.039,10.8s-10.038-4.758-10.038-10.8C1200.487,661.794,1203.967,657.036,1210.525,657.036Zm0,18.636c3.56,0,6.44-2.8,6.44-7.8,0-5.04-2.88-7.839-6.44-7.839s-6.438,2.8-6.438,7.839C1204.087,672.873,1206.966,675.672,1210.525,675.672Z" style="fill: #181716"/>
    <path d="M1229.286,657.515h4.119v3h-4.119v12.838c0,1.56.44,1.84,2.56,1.84h1.559v3h-2.6c-3.52,0-4.919-.72-4.919-4.52V660.515h-3.52v-3h3.52v-6.2h3.4Z" style="fill: #181716"/>
    <path d="M1237.166,649.637h3.4v10.918h.081c1.12-2.48,4.039-3.519,6.519-3.519,5.439,0,7.118,3.119,7.118,7.558v13.6h-3.4v-14a3.9,3.9,0,0,0-4.2-4.159c-4.12,0-6.12,2.759-6.12,6.479v11.678h-3.4Z" style="fill: #181716"/>
    <path d="M1277.043,671.633c-.92,4.559-4.2,7.038-8.839,7.038-6.6,0-9.718-4.558-9.918-10.878,0-6.2,4.079-10.757,9.719-10.757,7.318,0,9.557,6.839,9.358,11.838h-15.477c-.12,3.6,1.92,6.8,6.438,6.8,2.8,0,4.76-1.359,5.36-4.039Zm-3.279-5.759a5.949,5.949,0,0,0-5.959-5.839c-3.56,0-5.679,2.679-5.919,5.839Z" style="fill: #181716"/>
    <path d="M1280.766,657.515h3.2v4.36h.08c1.64-3.32,3.919-4.959,7.6-4.839v3.6c-5.479,0-7.479,3.119-7.479,8.359v9.2h-3.4Z" style="fill: #181716"/>
    <path d="M1294.205,657.515h3.2v3.04h.079a7.624,7.624,0,0,1,6.68-3.519c2.52,0,4.839,1,5.679,3.519a7.648,7.648,0,0,1,6.478-3.519c4.12,0,6.879,1.719,6.879,6v15.157h-3.4V664.634c0-2.559-.68-4.6-4-4.6a5.009,5.009,0,0,0-5.4,5.279v12.878H1307V664.634c0-2.679-.84-4.6-3.879-4.6a5.578,5.578,0,0,0-5.52,5.279v12.878h-3.4Z" style="fill: #181716"/>
    <path d="M1331.925,653.8h-3.4v-4.159h3.4Zm-3.4,3.719h3.4v20.677h-3.4Z" style="fill: #181716"/>
    <path d="M1354.842,671.633c-.92,4.559-4.2,7.038-8.839,7.038-6.6,0-9.718-4.558-9.918-10.878,0-6.2,4.079-10.757,9.719-10.757,7.318,0,9.557,6.839,9.358,11.838h-15.477c-.121,3.6,1.919,6.8,6.438,6.8,2.8,0,4.76-1.359,5.359-4.039Zm-3.28-5.759a5.948,5.948,0,0,0-5.958-5.839c-3.56,0-5.679,2.679-5.919,5.839Z" style="fill: #181716"/>
    <path d="M1387.441,671.633c-.92,4.559-4.2,7.038-8.838,7.038-6.6,0-9.718-4.558-9.918-10.878,0-6.2,4.079-10.757,9.718-10.757,7.319,0,9.558,6.839,9.359,11.838h-15.478c-.12,3.6,1.92,6.8,6.439,6.8,2.8,0,4.759-1.359,5.359-4.039Zm-3.279-5.759a5.949,5.949,0,0,0-5.959-5.839c-3.559,0-5.679,2.679-5.919,5.839ZM1379,648.957h4.359l-5.239,5.719h-2.56Z" style="fill: #181716"/>
    <path d="M1391.484,649.637h3.4v28.555h-3.4Z" style="fill: #181716"/>
    <path d="M1417.8,671.633c-.92,4.559-4.2,7.038-8.838,7.038-6.6,0-9.719-4.558-9.919-10.878,0-6.2,4.08-10.757,9.719-10.757,7.318,0,9.558,6.839,9.358,11.838h-15.477c-.121,3.6,1.919,6.8,6.439,6.8,2.8,0,4.759-1.359,5.358-4.039Zm-3.279-5.759a5.95,5.95,0,0,0-5.959-5.839c-3.56,0-5.679,2.679-5.919,5.839Z" style="fill: #181716"/>
    <path d="M1435.681,664.154a4.815,4.815,0,0,0-5.119-4.119c-4.92,0-6.44,3.879-6.44,8.079,0,3.8,1.72,7.558,6.039,7.558,3.279,0,5.239-1.92,5.679-5.039h3.479c-.759,5.039-3.919,8.038-9.118,8.038-6.319,0-9.679-4.4-9.679-10.557,0-6.2,3.2-11.078,9.759-11.078,4.679,0,8.439,2.2,8.918,7.118Z" style="fill: #181716"/>
    <path d="M1447.841,657.515h4.12v3h-4.12v12.838c0,1.56.44,1.84,2.559,1.84h1.561v3h-2.6c-3.519,0-4.92-.72-4.92-4.52V660.515h-3.518v-3h3.518v-6.2h3.4Z" style="fill: #181716"/>
    <path d="M1455.6,657.515h3.2v4.36h.08c1.64-3.32,3.92-4.959,7.6-4.839v3.6c-5.478,0-7.478,3.119-7.478,8.359v9.2h-3.4Z" style="fill: #181716"/>
    <path d="M1472.641,653.8h-3.4v-4.159h3.4Zm-3.4,3.719h3.4v20.677h-3.4Z" style="fill: #181716"/>
    <path d="M1496.4,686.111H1493V675.392h-.08c-1.119,2.28-3.759,3.279-6.6,3.279-6.358,0-9.518-5.039-9.518-10.878s3.12-10.757,9.438-10.757c2.12,0,5.159.8,6.679,3.239h.08v-2.76h3.4Zm-9.6-10.439c4.558,0,6.318-3.919,6.318-7.8,0-4.08-1.84-7.839-6.518-7.839-4.64,0-6.2,3.959-6.2,8C1480.4,671.913,1482.4,675.672,1486.8,675.672Z" style="fill: #181716"/>
    <path d="M1518.758,678.192h-3.2v-3.279h-.08a7.2,7.2,0,0,1-6.719,3.758c-5.44,0-7.119-3.119-7.119-7.558v-13.6h3.4v14a3.9,3.9,0,0,0,4.2,4.159c4.119,0,6.119-2.759,6.119-6.479V657.515h3.4Z" style="fill: #181716"/>
    <path d="M1541.518,671.633c-.92,4.559-4.2,7.038-8.838,7.038-6.6,0-9.719-4.558-9.919-10.878,0-6.2,4.08-10.757,9.718-10.757,7.319,0,9.559,6.839,9.359,11.838H1526.36c-.12,3.6,1.92,6.8,6.44,6.8,2.8,0,4.759-1.359,5.358-4.039Zm-3.28-5.759a5.949,5.949,0,0,0-5.959-5.839c-3.559,0-5.678,2.679-5.919,5.839Z" style="fill: #181716"/>
  </g>
  <g>
    <path d="M671.941,44.169c10.657,0,11.33,9.793,11.33,17.33,0,7.489-.673,17.282-11.33,17.282S660.612,68.988,660.612,61.5C660.612,53.962,661.285,44.169,671.941,44.169Zm0,31.011c6.961,0,7.009-8.64,7.009-13.729,0-5.04-.048-13.681-7.009-13.681s-7.008,8.641-7.008,13.681C664.933,66.54,664.981,75.18,671.941,75.18Z" style="fill: #181716"/>
    <path d="M689.269,72.876H694.6v4.849c0,3.6-1.584,6.48-5.281,7.536v-2.4c2.161-.72,2.881-3.12,2.785-4.656h-2.832Z" style="fill: #181716"/>
    <path d="M715.718,78.205h-4.08V53.818h-8.833V50.554c4.656,0,8.881-1.248,9.793-6.385h3.12Z" style="fill: #181716"/>
  </g>
  <g>
    <path d="M678.66,94.9c10.657,0,11.329,9.793,11.329,17.329,0,7.489-.672,17.282-11.329,17.282s-11.329-9.793-11.329-17.282C667.331,104.7,668,94.9,678.66,94.9Zm0,31.011c6.961,0,7.008-8.641,7.008-13.729,0-5.041-.047-13.682-7.008-13.682s-7.009,8.641-7.009,13.682C671.651,117.274,671.7,125.915,678.66,125.915Z" style="fill: #181716"/>
    <path d="M695.987,123.61h5.329v4.849c0,3.6-1.585,6.48-5.281,7.537v-2.4c2.16-.72,2.881-3.12,2.784-4.656h-2.832Z" style="fill: #181716"/>
    <path d="M725.461,117.37h4.608v3.6h-4.608v7.969h-3.84V120.97h-14.93v-3.936L722.2,94.9h3.264Zm-3.84,0V100.712h-.1L710.2,117.37Z" style="fill: #181716"/>
  </g>
  <g>
    <path d="M578.486,48.439h-4.08V24.053h-8.833V20.789c4.657,0,8.881-1.248,9.793-6.385h3.12Z" style="fill: #181716"/>
    <path d="M590.629,43.11h5.329v4.849c0,3.6-1.584,6.48-5.281,7.537V53.1c2.16-.72,2.881-3.12,2.784-4.656h-2.832Z" style="fill: #181716"/>
    <path d="M622.983,18.484c-6.865,6.817-12.433,19.3-13.057,29.955h-4.561c.768-11.521,6.289-22.034,13.442-29.619H600.949V14.98h22.034Z" style="fill: #181716"/>
  </g>
  <g>
    <path d="M446.052,84.875C445.716,77.962,449.8,72.826,457,72.826c5.953,0,10.657,3.456,10.657,9.793,0,6-4.032,9.025-8.257,11.665-4.272,2.592-8.736,4.752-9.553,8.977h17.474v3.6H445.092c.672-8.065,4.752-10.945,9.553-13.922,5.76-3.552,8.688-5.664,8.688-10.368,0-3.7-2.976-6.145-6.576-6.145-4.753,0-6.769,4.368-6.625,8.449Z" style="fill: #181716"/>
    <path d="M474.612,101.532h5.329v4.849c0,3.6-1.585,6.48-5.281,7.536v-2.4c2.16-.72,2.881-3.12,2.784-4.656h-2.832Z" style="fill: #181716"/>
    <path d="M486.084,84.875c-.335-6.913,3.745-12.049,10.945-12.049,5.953,0,10.657,3.456,10.657,9.793,0,6-4.032,9.025-8.256,11.665-4.273,2.592-8.737,4.752-9.554,8.977H507.35v3.6H485.125c.671-8.065,4.751-10.945,9.552-13.922,5.761-3.552,8.689-5.664,8.689-10.368,0-3.7-2.976-6.145-6.577-6.145-4.752,0-6.768,4.368-6.624,8.449Z" style="fill: #181716"/>
  </g>
  <g>
    <path d="M390.134,141.562c-.336-6.912,3.744-12.049,10.945-12.049,5.953,0,10.657,3.457,10.657,9.793,0,6-4.032,9.025-8.257,11.665-4.272,2.592-8.736,4.753-9.553,8.977H411.4v3.6H389.174c.672-8.064,4.752-10.944,9.553-13.921,5.76-3.552,8.689-5.665,8.689-10.369,0-3.7-2.977-6.144-6.577-6.144-4.753,0-6.769,4.368-6.625,8.448Z" style="fill: #181716"/>
    <path d="M418.694,158.22h5.329v4.848c0,3.6-1.585,6.481-5.281,7.537v-2.4c2.16-.72,2.881-3.121,2.784-4.657h-2.832Z" style="fill: #181716"/>
    <path d="M434.487,155.34c.288,3.312,2.976,5.184,6.24,5.184,4.993,0,7.441-4.368,7.681-13.153l-.1-.1a8.921,8.921,0,0,1-7.873,4.7c-6.912,0-10.752-4.656-10.752-11.376,0-6.577,4.608-11.09,11.184-11.09,6.337,0,11.665,3.409,11.665,16.274,0,11.761-3.552,18.338-11.809,18.338-5.712,0-9.792-2.929-10.321-8.785Zm6.192-22.226c-4.848,0-6.672,3.888-6.672,8.064,0,3.745,2.784,7.2,6.72,7.2,4.273,0,6.961-3.456,6.961-7.489C447.688,136.714,445.24,133.114,440.679,133.114Z" style="fill: #181716"/>
  </g>
  <g>
    <path d="M865.909,494.839h4.609v3.6h-4.609v7.969h-3.84v-7.969H847.14V494.5l15.5-22.129h3.264Zm-3.84,0V478.181h-.1l-11.329,16.658Z" style="fill: #181716"/>
    <path d="M878.916,498.2c.288,3.312,2.976,5.184,6.241,5.184,4.992,0,7.44-4.368,7.68-13.153l-.1-.1a8.919,8.919,0,0,1-7.872,4.7c-6.913,0-10.753-4.657-10.753-11.377,0-6.577,4.608-11.089,11.184-11.089,6.337,0,11.665,3.408,11.665,16.273,0,11.761-3.552,18.338-11.808,18.338-5.713,0-9.793-2.928-10.322-8.785Zm6.192-22.226c-4.848,0-6.672,3.888-6.672,8.065,0,3.744,2.784,7.2,6.721,7.2,4.272,0,6.96-3.456,6.96-7.488C892.117,479.573,889.669,475.973,885.108,475.973Z" style="fill: #181716"/>
    <path d="M903.156,501.079h5.328v4.849c0,3.6-1.584,6.48-5.28,7.536v-2.4c2.16-.72,2.88-3.12,2.784-4.656h-2.832Z" style="fill: #181716"/>
    <path d="M935.077,476.549H921.348l-1.824,9.793.1.1a8.611,8.611,0,0,1,6.337-2.448c6.048,0,10.992,3.888,10.992,11.665,0,5.761-3.984,11.329-11.9,11.329-5.9,0-10.7-3.6-10.849-9.745h4.081c.24,3.5,3.072,6.144,7.152,6.144,3.888,0,7.2-2.64,7.2-8.064a7.371,7.371,0,0,0-7.681-7.729,8.168,8.168,0,0,0-6.336,3.216l-3.5-.192,3.169-17.665h16.8Z" style="fill: #181716"/>
  </g>
  <g>
    <path d="M376.647,630.825c.624.049,1.2.049,1.776.049,3.456,0,6.481-1.873,6.481-5.569,0-3.553-2.592-5.472-6.049-5.472-4.464,0-6.384,3.408-6.432,7.392h-4.081c.241-6.48,3.7-10.993,10.513-10.993,5.9,0,10.369,2.832,10.369,9.121a7.8,7.8,0,0,1-4.7,6.769v.1c4.128.912,6.144,4.177,6.144,8.257,0,6.817-5.328,10.369-11.713,10.369-6.912,0-11.473-4.08-11.329-11.089H371.7c.144,4.416,2.592,7.489,7.248,7.489,3.985,0,7.393-2.449,7.393-6.576,0-4.273-3.217-6.529-7.249-6.529a20.334,20.334,0,0,0-2.448.144Z" style="fill: #181716"/>
    <path d="M394.982,628.281c-.336-6.912,3.745-12.049,10.945-12.049,5.953,0,10.657,3.456,10.657,9.793,0,6-4.032,9.025-8.256,11.665-4.273,2.592-8.737,4.752-9.554,8.977h17.474v3.6H394.022c.672-8.064,4.752-10.945,9.553-13.921,5.76-3.553,8.689-5.665,8.689-10.369,0-3.7-2.976-6.144-6.577-6.144-4.752,0-6.769,4.368-6.625,8.448Z" style="fill: #181716"/>
    <path d="M423.542,644.938h5.329v4.849c0,3.6-1.584,6.481-5.281,7.537v-2.4c2.16-.719,2.881-3.12,2.785-4.656h-2.833Z" style="fill: #181716"/>
    <path d="M453.016,638.7h4.608v3.6h-4.608v7.969h-3.841V642.3H434.246v-3.936l15.5-22.13h3.265Zm-3.841,0V622.041h-.1L437.75,638.7Z" style="fill: #181716"/>
  </g>
  <g>
    <path d="M402.564,320.556h-4.08V296.17h-8.833v-3.264c4.657,0,8.881-1.248,9.793-6.385h3.12Z" style="fill: #181716"/>
    <path d="M425.508,286.521c10.657,0,11.329,9.793,11.329,17.33,0,7.488-.672,17.281-11.329,17.281s-11.329-9.793-11.329-17.281C414.179,296.314,414.851,286.521,425.508,286.521Zm0,31.011c6.961,0,7.009-8.641,7.009-13.729,0-5.041-.048-13.681-7.009-13.681s-7.008,8.64-7.008,13.681C418.5,308.891,418.548,317.532,425.508,317.532Z" style="fill: #181716"/>
    <path d="M442.835,315.228h5.329v4.848c0,3.6-1.584,6.481-5.281,7.537v-2.4c2.16-.719,2.881-3.12,2.784-4.656h-2.832Z" style="fill: #181716"/>
    <path d="M465.3,286.521c7.441,0,10.321,4.369,10.321,8.689a7.881,7.881,0,0,1-4.7,7.057c4.08,1.3,6.048,4.272,6.048,8.5,0,6.577-4.992,10.369-11.281,10.369-6.529,0-11.569-3.408-11.569-10.369a8.589,8.589,0,0,1,5.952-8.5,7.694,7.694,0,0,1-4.752-7.057C455.315,289.593,460.067,286.521,465.3,286.521Zm.384,31.011c4.08,0,6.961-2.832,6.961-6.625,0-3.7-3.169-6.48-7.009-6.48-4.032,0-7.2,2.592-7.2,6.529C458.436,315.036,461.459,317.532,465.684,317.532Zm0-16.7c3.216,0,5.616-2.017,5.616-5.473,0-3.408-2.4-5.232-5.712-5.232-3.264,0-5.953,1.824-5.953,5.232C459.635,299.1,462.324,300.827,465.684,300.827Z" style="fill: #181716"/>
  </g>
  <path d="M631.52,673.48c103.328,0,187.088-83.76,187.088-187.088s-83.76-187.08-187.088-187.08-187.088,83.76-187.088,187.08S528.192,673.48,631.52,673.48" style="fill: #fff"/>
</svg>
